<?xml version="1.0" encoding="utf-8"?>
<!-- Generator: Adobe Illustrator 19.0.0, SVG Export Plug-In . SVG Version: 6.00 Build 0)  -->
<svg version="1.1" id="Layer_1" xmlns="http://www.w3.org/2000/svg" xmlns:xlink="http://www.w3.org/1999/xlink" x="0px" y="0px"
	 viewBox="0 0 500 500" style="enable-background:new 0 0 500 500;" xml:space="preserve">
<style type="text/css">
	.st0{fill:#A7172B;}
</style>
<g id="XMLID_1_">
	<path id="XMLID_3_" class="st0" d="M225.6,152.6h-80.3c-41.4,0-77.8,34.4-77.8,78.3c0,43.6,34.8,79.9,79.1,79.9h55.1
		c5.1,0.1,14.8-1.5,21.9-6.2c6.3-4.2,9.4-7,13.9-13.7l43.3-74.7c2.2-3.5,3.9-6.3,8-9.7c4.6-3.9,8.6-4.9,14.6-5.2h48.7
		c17.1-0.7,31.8,13.3,31.8,30.4c0,17.1-14.5,31.1-31.6,30.4h-41.5c-8.2,0.4-13.2,1.8-20.3,5.9c-8.1,4.7-11.5,8.9-16.7,17.2l-36,62
		h56l14.1-24c2.8-4.8,5.3-7.2,10.2-9.7c4.3-2.2,7.3-2.9,12.2-2.8h24.3c41.4,0,77-34.7,77.9-77.5c0.9-44.4-34.1-80.7-80.3-80.7H294
		c-9.1,0.1-19,4-22.5,6.3c-5.4,3.6-11.2,8.6-15.7,16.1l-43.4,75.4c-2.6,3.7-4,5.7-7.8,8.1c-4.5,2.9-7.9,3.3-13.1,3.6h-46.2
		c-16.4-0.7-29.1-14-29.1-30.4c0-16.4,12.7-29.7,29.1-30.4h52.1"/>
</g>
</svg>
